<svg width="391" height="82" viewBox="0 0 391 82" fill="none" xmlns="http://www.w3.org/2000/svg">
<g filter="url(#filter0_d_192_7921)">
<path fill-rule="evenodd" clip-rule="evenodd" d="M196 47C215.882 47 232 30.8823 232 11C232 8.34916 234.021 6 236.671 6H377C380.314 6 383 8.68629 383 12V71C383 71.5523 382.552 72 382 72H8.99999C8.44771 72 8 71.5523 8 71V12C8 8.68629 10.6863 6 14 6H155.329C157.979 6 160 8.34916 160 11C160 30.8823 176.118 47 196 47Z" fill="white"/>
</g>
<defs>
<filter id="filter0_d_192_7921" x="0" y="0" width="391" height="82" filterUnits="userSpaceOnUse" color-interpolation-filters="sRGB">
<feFlood floodOpacity="0" result="BackgroundImageFix"/>
<feColorMatrix in="SourceAlpha" type="matrix" values="0 0 0 0 0 0 0 0 0 0 0 0 0 0 0 0 0 0 127 0" result="hardAlpha"/>
<feOffset dy="2"/>
<feGaussianBlur stdDeviation="4"/>
<feColorMatrix type="matrix" values="0 0 0 0 0 0 0 0 0 0 0 0 0 0 0 0 0 0 0.16 0"/>
<feBlend mode="normal" in2="BackgroundImageFix" result="effect1_dropShadow_192_7921"/>
<feBlend mode="normal" in="SourceGraphic" in2="effect1_dropShadow_192_7921" result="shape"/>
</filter>
</defs>
</svg>
